<svg xmlns="http://www.w3.org/2000/svg" viewBox="0 0 24 24" fill="none">
  <path d="M12 15.5a3.5 3.5 0 1 0 0-7 3.5 3.5 0 0 0 0 7Z" stroke="currentColor" stroke-width="1.6" stroke-linecap="round" stroke-linejoin="round"/>
  <path d="M4.5 13.2v-2.4l2-.7a5.8 5.8 0 0 1 .7-1.6l-.9-2 1.7-1.7 2 1a5.8 5.8 0 0 1 1.6-.7l.7-2h2.4l.7 2a5.8 5.8 0 0 1 1.6.7l2-1 1.7 1.7-1 2a5.8 5.8 0 0 1 .7 1.6l2 .7v2.4l-2 .7a5.8 5.8 0 0 1-.7 1.6l1 2-1.7 1.7-2-1a5.8 5.8 0 0 1-1.6.7l-.7 2h-2.4l-.7-2a5.8 5.8 0 0 1-1.6-.7l-2 1-1.7-1.7 1-2a5.8 5.8 0 0 1-.7-1.6l-2-.7Z" stroke="currentColor" stroke-width="1.6" stroke-linecap="round" stroke-linejoin="round"/>
</svg>
